<?xml version="1.0" encoding="UTF-8" standalone="no"?>
<!DOCTYPE svg PUBLIC "-//W3C//DTD SVG 1.1//EN" "http://www.w3.org/Graphics/SVG/1.1/DTD/svg11.dtd">
<svg width="100%" height="100%" viewBox="0 0 2000 700" version="1.1" xmlns="http://www.w3.org/2000/svg" xmlns:xlink="http://www.w3.org/1999/xlink" xml:space="preserve" xmlns:serif="http://www.serif.com/" style="fill-rule:evenodd;clip-rule:evenodd;stroke-linejoin:round;stroke-miterlimit:2;">
    <rect x="0" y="0" width="2000" height="700" style="fill:rgb(19,19,19);"/>
    <g transform="matrix(1.11792,0,0,-1,-220.83,689)">
        <path d="M0,534L55.5,546C111,558 222,582 333.2,603C444.3,624 555.7,642 666.8,637.8C778,633.7 889,607.3 1000,596C1111,584.7 1222,588.3 1333.2,601.5C1444.3,614.7 1555.7,637.3 1666.8,639.8C1778,642.3 1889,624.7 1944.5,615.8L2000,607L2000,701L0,701L0,534Z" style="fill:rgb(199,199,199);fill-rule:nonzero;"/>
    </g>
</svg>
